<svg xmlns="http://www.w3.org/2000/svg" width="19.993" height="19.993" viewBox="0 0 19.993 19.993"><defs><style>.a{fill:#b1aba0;}</style></defs><path class="a" d="M359.415,69a.62.62,0,0,1-.442-.183l-1.458-1.458a.625.625,0,0,1-.183-.441V64.625a.625.625,0,0,1,1.25,0v2.032l1.275,1.275A.625.625,0,0,1,359.415,69Zm0,0" transform="translate(-343.379 -61.501)"/><path class="a" d="M136.456,419.749a3.128,3.128,0,0,1-3.124-3.124.625.625,0,0,1,1.25,0,1.874,1.874,0,1,0,3.749,0,.625.625,0,0,1,1.25,0A3.128,3.128,0,0,1,136.456,419.749Zm0,0" transform="translate(-128.126 -399.756)"/><path class="a" d="M15.2,82.693H1.458A1.458,1.458,0,0,1,.51,80.127a.575.575,0,0,1,.067-.05A5.6,5.6,0,0,0,2.5,75.854V73.529A5.794,5.794,0,0,1,6.97,67.865a.625.625,0,0,1,.288,1.216,4.548,4.548,0,0,0-3.51,4.448v2.324A6.851,6.851,0,0,1,1.33,81.077c-.013.01-.023.019-.037.028a.206.206,0,0,0-.044.129.211.211,0,0,0,.208.208H15.2a.211.211,0,0,0,.208-.208.2.2,0,0,0-.045-.129l-.036-.028a6.794,6.794,0,0,1-1.75-2.283.624.624,0,1,1,1.129-.534,5.568,5.568,0,0,0,1.377,1.819.723.723,0,0,1,.063.047,1.457,1.457,0,0,1-.946,2.566Zm0,0" transform="translate(0 -65.199)"/><path class="a" d="M240.083,10.829A5.415,5.415,0,1,1,245.5,5.415,5.421,5.421,0,0,1,240.083,10.829Zm0-9.58a4.165,4.165,0,1,0,4.165,4.165A4.17,4.17,0,0,0,240.083,1.25Zm0,0" transform="translate(-225.505)"/></svg>