<svg xmlns="http://www.w3.org/2000/svg" width="19.896" height="19.896" viewBox="0 0 19.896 19.896"><defs><style>.a{fill:#b1aba0;}</style></defs><path class="a" d="M240.622,242.958a.622.622,0,0,1-.622-.622V235.29a.622.622,0,1,1,1.243,0v7.046A.622.622,0,0,1,240.622,242.958Zm0,0" transform="translate(-230.674 -225.549)"/><path class="a" d="M166.824,239.024a.617.617,0,0,1-.439-.182l-2.669-2.669-2.669,2.669a.622.622,0,0,1-.88-.88l3.109-3.109a.622.622,0,0,1,.88,0l3.109,3.109a.621.621,0,0,1-.439,1.061Zm0,0" transform="translate(-153.768 -225.553)"/><path class="a" d="M17.616,60.906H2.28A2.282,2.282,0,0,1,0,58.626V44.948a2.282,2.282,0,0,1,2.28-2.28H17.616a2.282,2.282,0,0,1,2.28,2.28V58.626A2.282,2.282,0,0,1,17.616,60.906ZM2.28,43.911a1.038,1.038,0,0,0-1.036,1.036V58.626A1.038,1.038,0,0,0,2.28,59.662H17.616a1.038,1.038,0,0,0,1.036-1.036V44.948a1.038,1.038,0,0,0-1.036-1.036Zm0,0" transform="translate(0 -41.01)"/><path class="a" d="M19.274,171.911H.622a.622.622,0,0,1,0-1.243H19.274a.622.622,0,0,1,0,1.243Zm0,0" transform="translate(0 -164.036)"/><path class="a" d="M107.29,4.974a.622.622,0,0,1-.622-.622V.622a.622.622,0,0,1,1.243,0v3.73A.622.622,0,0,1,107.29,4.974Zm0,0" transform="translate(-102.523)"/><path class="a" d="M373.954,4.974a.622.622,0,0,1-.622-.622V.622a.622.622,0,1,1,1.243,0v3.73A.622.622,0,0,1,373.954,4.974Zm0,0" transform="translate(-358.825)"/></svg>