<svg xmlns="http://www.w3.org/2000/svg" width="19.822" height="19.822" viewBox="0 0 19.822 19.822"><defs><style>.a{fill:#b1aba0;}</style></defs><path class="a" d="M218.7,10.737a5.368,5.368,0,1,1,5.368-5.368A5.375,5.375,0,0,1,218.7,10.737Zm0-9.5a4.13,4.13,0,1,0,4.13,4.13A4.134,4.134,0,0,0,218.7,1.239Zm0,0" transform="translate(-205.073)"/><path class="a" d="M338.065,68.955a.615.615,0,0,1-.438-.182l-1.445-1.445a.618.618,0,0,1-.182-.438V64.619a.619.619,0,1,1,1.239,0v2.014L338.5,67.9a.62.62,0,0,1-.438,1.058Zm0,0" transform="translate(-322.992 -61.522)"/><path class="a" d="M2.891,264.259H.619A.62.62,0,0,1,0,263.64v-7.02A.62.62,0,0,1,.619,256a7.36,7.36,0,0,1,4.3,1.048.619.619,0,0,1,.222.654l-1.652,6.1a.62.62,0,0,1-.6.457ZM1.239,263.02H2.417l1.4-5.179a7.027,7.027,0,0,0-2.581-.584v5.763Zm0,0" transform="translate(0 -246.089)"/><path class="a" d="M72.871,373.6c-1.99,0-5.79-1.652-7.879-2.635a.62.62,0,0,1,.529-1.121c3.395,1.6,6.074,2.518,7.351,2.518,1.675,0,5.477-1.809,7.47-2.853a2.119,2.119,0,0,0-1.069-.244,8.752,8.752,0,0,0-2.488.588,9.581,9.581,0,0,1-2.88.651,14.854,14.854,0,0,1-4.134-.863.619.619,0,0,1,.423-1.165,13.814,13.814,0,0,0,3.712.789,8.752,8.752,0,0,0,2.488-.588,9.581,9.581,0,0,1,2.88-.651,2.664,2.664,0,0,1,2.64,1.422.618.618,0,0,1-.276.772c-.249.137-6.157,3.38-8.765,3.38Zm0,0" transform="translate(-62.134 -353.776)"/><path class="a" d="M106.335,302.65a.62.62,0,0,1-.619-.619v-.372a1.039,1.039,0,0,0-.826-1.012l-7.954-1.627a.619.619,0,0,1,.249-1.213l7.954,1.627a2.281,2.281,0,0,1,1.817,2.225v.372a.621.621,0,0,1-.62.62Zm0,0" transform="translate(-92.707 -286.264)"/></svg>