<svg xmlns="http://www.w3.org/2000/svg" width="18.597" height="21.253" viewBox="0 0 18.597 21.253"><defs><style>.a{fill:#b1aba0;}</style></defs><path class="a" d="M211.543,159.516a.667.667,0,0,1-.529-.26l-2.878-3.764a.665.665,0,0,1-.136-.4V150a.664.664,0,1,1,1.328,0v4.867l2.742,3.585a.665.665,0,0,1-.527,1.068Zm0,0" transform="translate(-199.365 -143.133)"/><path class="a" d="M9.3,82.6a9.3,9.3,0,1,1,9.3-9.3A9.309,9.309,0,0,1,9.3,82.6Zm0-17.268a7.97,7.97,0,1,0,7.97,7.97A7.979,7.979,0,0,0,9.3,65.328Zm0,0" transform="translate(0 -61.343)"/><path class="a" d="M140.2,1.328H134A.664.664,0,1,1,134,0h6.2a.664.664,0,1,1,0,1.328Zm0,0" transform="translate(-127.797)"/><path class="a" d="M208.664,3.985A.664.664,0,0,1,208,3.321V.664a.664.664,0,0,1,1.328,0V3.321A.664.664,0,0,1,208.664,3.985Zm0,0" transform="translate(-199.366)"/><path class="a" d="M355.656,78.07a.665.665,0,0,1-.469-1.134l2.09-2.09a.664.664,0,0,1,.94.939l-2.09,2.09A.664.664,0,0,1,355.656,78.07Zm0,0" transform="translate(-340.256 -71.552)"/></svg>