<svg xmlns="http://www.w3.org/2000/svg" width="15" height="15" viewBox="0 0 15 15"><defs><style>.a{fill:#18df68;}</style></defs><path class="a" d="M7.5,0A7.5,7.5,0,1,0,15,7.5,7.5,7.5,0,0,0,7.5,0Zm0,13.929A6.429,6.429,0,1,1,13.929,7.5,6.429,6.429,0,0,1,7.5,13.929Z"/><g transform="translate(3.208 4.292)"><path class="a" d="M110.6,136.893a.536.536,0,0,0-.744,0h0l-4.978,4.978-1.764-1.764a.536.536,0,0,0-.771.744l.013.013,2.143,2.143a.536.536,0,0,0,.757,0l5.357-5.357A.536.536,0,0,0,110.6,136.893Z" transform="translate(-102.19 -136.743)"/></g></svg>