<svg xmlns="http://www.w3.org/2000/svg" width="19.213" height="19.214" viewBox="0 0 19.213 19.214"><defs><style>.a{fill:#b1aba0;}</style></defs><g transform="translate(-0.002)"><g transform="translate(0.002)"><path class="a" d="M188.053,154.241h.32a.32.32,0,1,0,.64,0h.32a.32.32,0,0,0,0-.64h-1.281a.32.32,0,1,0,0,.64Z" transform="translate(-180.688 -147.837)"/><path class="a" d="M19.211,363.793l-.322-1.931c-.355-1.775-3.334-2.768-5.329-2.8l-1.247-.623a.321.321,0,0,0-.37.06l-2.336,2.335L7.273,358.5a.321.321,0,0,0-.37-.06l-1.219.61c-1.682.03-5,1.021-5.358,2.826l-.32,1.921a.32.32,0,0,0,.263.369.294.294,0,0,0,.053,0,.32.32,0,0,0,.315-.267l.318-1.911c.264-1.318,3.121-2.251,4.682-2.3l1.5,1.5a.32.32,0,0,0,.453-.453L6.306,359.45l.677-.338,2.4,2.4a.32.32,0,0,0,.453,0l2.4-2.4.677.338-1.287,1.287a.32.32,0,0,0,.453.453l1.49-1.491c1.776.037,4.42.918,4.692,2.278l.32,1.921a.32.32,0,0,0,.315.267.3.3,0,0,0,.053,0A.32.32,0,0,0,19.211,363.793Z" transform="translate(-0.002 -344.952)"/><path class="a" d="M103.129,8.3a23.418,23.418,0,0,0,1.566,3.408l.051.077c.411.623,1.1,1.667,3.418,1.667s3.007-1.044,3.418-1.667l.051-.077A23.426,23.426,0,0,0,113.2,8.3a.963.963,0,0,0,.729-.932V6.084a.963.963,0,0,0-.64-.906v-.7c0-2.849-1.868-4.483-5.124-4.483s-5.124,1.634-5.124,4.483v.7a.99.99,0,0,0-.64.9V7.365A.963.963,0,0,0,103.129,8.3Zm-.089-2.213a.342.342,0,0,1,.32-.32.32.32,0,0,0,.32-.32V4.483c0-1.435.582-3.843,4.483-3.843s4.483,2.408,4.483,3.843v.961a.32.32,0,0,0,.32.32.321.321,0,0,1,.32.32V7.365a.321.321,0,0,1-.32.32.321.321,0,0,0-.3.208A25.464,25.464,0,0,1,111.1,11.35l-.052.079c-.384.582-.909,1.379-2.883,1.379s-2.5-.8-2.883-1.379l-.052-.079a25.473,25.473,0,0,1-1.568-3.457.321.321,0,0,0-.3-.208.321.321,0,0,1-.32-.32Z" transform="translate(-98.557 0)"/><path class="a" d="M426.987,422.4a.32.32,0,0,0-.32.32v2.722a.32.32,0,1,0,.64,0V422.72A.32.32,0,0,0,426.987,422.4Z" transform="translate(-410.656 -406.549)"/><path class="a" d="M273.387,154.241h.32a.32.32,0,1,0,.64,0h.32a.32.32,0,0,0,0-.64h-1.281a.32.32,0,1,0,0,.64Z" transform="translate(-262.82 -147.837)"/><path class="a" d="M221.867,273.387a.32.32,0,0,0,.32.32h1.921a.32.32,0,0,0,0-.64h-1.921A.32.32,0,0,0,221.867,273.387Z" transform="translate(-213.541 -262.82)"/><path class="a" d="M68.587,422.4a.32.32,0,0,0-.32.32v2.722a.32.32,0,1,0,.64,0V422.72A.32.32,0,0,0,68.587,422.4Z" transform="translate(-65.705 -406.549)"/><path class="a" d="M273.387,452.267a.32.32,0,0,0-.32.32v1.6a.32.32,0,1,0,.64,0v-1.6A.32.32,0,0,0,273.387,452.267Z" transform="translate(-262.82 -435.295)"/><path class="a" d="M326.509,443.733h-1.921a.32.32,0,0,0-.32.32v1.921a.32.32,0,0,0,.64,0v-1.6h1.281v1.6a.32.32,0,1,0,.64,0v-1.921A.32.32,0,0,0,326.509,443.733Z" transform="translate(-312.099 -427.081)"/><path class="a" d="M119.787,412.536a.32.32,0,0,0-.32.32v3.092a.32.32,0,1,0,.64,0v-3.092A.32.32,0,0,0,119.787,412.536Z" transform="translate(-114.984 -397.055)"/><path class="a" d="M170.987,443.733a.32.32,0,0,0-.32.32v1.921a.32.32,0,0,0,.64,0v-1.921A.32.32,0,0,0,170.987,443.733Z" transform="translate(-164.263 -427.081)"/><path class="a" d="M222.187,452.267a.32.32,0,0,0-.32.32v1.6a.32.32,0,1,0,.64,0v-1.6A.32.32,0,0,0,222.187,452.267Z" transform="translate(-213.541 -435.295)"/></g></g></svg>